# xmcd
#
# Track frame offsets:
#	150
#	11086
#	26696
#	45071
#	57517
#	69655
#	84845
#	102380
#	122749
#	142891
#	159397
#
# Disc length: 2336 seconds
# Revision: 1
# Processed by: cddbd v1.5.2PL0 Copyright (c) Steve Scherf et al.
# Submitted via: dBpowerAMP V12.0
#
DISCID=85091e0b
DTITLE=Jim and Lynna Woolsey - Heart And Soul, Blood And Bone
DYEAR=2016
DGENRE=Country
TTITLE0=Time
TTITLE1=Just Like Me
TTITLE2=Heart And Soul, Blood And Bone
TTITLE3=Give Me Back Tomorrow
TTITLE4=Yesterday
TTITLE5=Notes From Home
TTITLE6=Last Train Out
TTITLE7=Pike County Blues
TTITLE8=Freedom
TTITLE9=Lights of Home
TTITLE10=Expectations
EXTD=
EXTT0=
EXTT1=
EXTT2=
EXTT3=
EXTT4=
EXTT5=
EXTT6=
EXTT7=
EXTT8=
EXTT9=
EXTT10=
PLAYORDER=
